
<svg xmlns="http://www.w3.org/2000/svg" width="1000" height="600">

  <style>
    /* <![CDATA[ */
    .fil3 {

      opacity:.3;
      stroke: white;
      stroke-width:2;

    }

    .fil3:hover{
      opacity:1;
    }

    .legend{
      font-size:10px;
      text-anchor:middle;
      font-family:Arial;
      stroke-width:.7;
    }

    /* ]]> */
  </style>


  <path class="fil3" d="M277.133 482.957l-.477-7.533 4.118-8.795-1.154-4.3 4.018 3.925 14.62-.197-1.392-31.473 7.937 1.084 2.149-4.792.022-5.127-6.703-5.265-16.133-4.753-1.85-1.498 1.81-4.043 6.147-6.922-.023-8.184 8.594-6.409 4.476-6.744-15.934-9.09-2.606-6.706 3.004-3.707 1.014-13.824-4.515-2.346 1.094-2.406-2.586-5.266 5.749-22.895 24.845-23.861 2.805-4.299-8.096-2.997-9.13 4.26-13.607 1.242-4.476 2.524-2.665-1.085 1.75-14.475 6.306-.828 19.514-12.167 3.263-7.178-.399-12.463 2.805-3.51 2.387.512 2.586-3.017-2.805-.434-7.3-7.533 4.854-7.336-6.803-2.603-3.243-4.831 1.691-4.22-3.64-3.353 2.367-7.296-4.217 3.825-4.516.454-4.018-2.603-3.62 4.713-.915-.355-5.292-9.288-.935-6.271-8.752-12.64 2.606-3.215-3.66-4.477 1.591-5.719 8.951-.71 3.7-2.938 1.572 4.615 4.058-1.598 3.998 3.097 2.487-1.38-.239-2.328 7.32-.907 1.373-5.344 2.526-1.775 2.387 1.144 3.6-.513 2.348 2.367 9.787-1.223 8.494 4.91 7.38 6.449.935 5.462 3.939 1.44.954 2.425 8.574 2.505 3.382-6.942 1.511-.256 5.51 2.583 8.415 7.494 13.447-1.795 6.883-4.22.179-1.932 2.626 1.222 3.52-1.34.1-6.607 8.255-7.77-.676-2.268 12.452-10.49 6.724 1.3 11.875-10.786 8.116 3.076-.238 4.063-4.854 4.062-1.034 7.119-4.158 3.155-1.611 3.708-.597 6.507-5.291 3.116-.915 11.99 1.014 3.037-3.282 10.708 5.948 10.708.855 9.82-1.432 5.561 4.456 5.7 5.928-2.11 13.666-12.838 15.018-5.6 14.004.965-.556 1.243 11.796 1.696 10.642-1.538 3.938-2.11 1.453 1.005 1.412-2.86 6.962.533 4.396-2.011 1.87 3.826 1.572-.316-.816 5.167 3.083 1.242.836-2.05 7.579-.888.855-4.457 2.885-1.242 10.324 18.754-.418 5.304-5.908-.927.835 1.972-2.586.888-5.39 6.98-5.212 2.584 4.953 9.071-4.774 3.708 3.362 5.64 6.365.986-2.128 4.673 2.745 3.629-3.203 1.222 3.979 7.02-2.427-.137-1.214 5.719-8.872 3.411 1.453 4.812-1.592 4.023-5.768 3.135-.12 5.147-9.17 7.376-4.973-4.733-.876 2.03-10.761 1.874-12.692-2.327-7.479-8.854-3.402-.335-10.702 1.124-11.278-7.158-7.56-.316-7.857-4.654-6.902 2.722-12.612-6.962-2.288 25.577-6.683 6.252-12.711 5.758-1.353-1.854-6.067 1.46-4.556 19.365 6.306 8.243 4.914 2.327-13.11 10.096-7.041 2.9-1.79 1.34 3.103 12.365 9.33 9.209 7.24 13.212-2.407 13.509-3.998 7.414-2.308 11.221.975 6.034 9.568 6.528-.14 12.206 5.153 19.937-2.407 9.111-2.347 1.736 5.888 7.118-2.447 3.077 2.427 4.496-2.944 6.823-4.018-.138-9.43 4.93-1.014 3.49 3.282 5.345-12.492 7.592-6.982-8.48-10.205.217-4.515-4.26-4.078 1.302-5.371 4.24-9.051 3.037-3.959-1.873-7.34.75-6.067-1.224-12.313 8.618-6.525.434-.776-1.755 12.592-17.906-3.76-2.978-1.75-4.299-6.186-2.898-1.015-4.97-2.089-.315-4.973-5.266-12.233-1.991-2.626-10.511-.06-.04z" fill="#ccc" fill-rule="evenodd" />
  <path class="fil3" d="M377.208 366.575l7.022-2.9 13.128-10.096-4.913-2.327-6.326-8.243 4.556-19.365 6.067-1.46 1.372 1.854 3.84 5.246 4.237-3.984 2.864.336-1.89 4.791 5.252 3.59 7.897-3.156-.08 10.965-5.709 5.462-1.551 4.733-8.972 7.967-1.233 8.48-2.447 2.09-5.41 1.44-17.744-5.424h.04z" fill="#0cf" fill-rule="evenodd" />
  <path class="fil3" d="M377.172 366.58l17.724 5.423 5.411-1.44 2.467-2.09 1.233-8.5 8.951-7.947 1.572-4.752 5.69-5.463.079-10.964-7.897 3.155-5.252-3.57 1.89-4.791-2.865-.335-4.217 3.964-3.859-5.226 12.711-5.758 6.684-6.271 5.271 5.482 5.252-.513 7.798 10.195-.517 10.314 9.17 2.938 4.157 7.869 9.648 2.76-2.984 6.035 2.845 4.457-1.89 7.888 1.611 4.003-5.987 3.668 3.56 1.34 9.41-3.687 5.27 1.873L501.44 407.5l10.105 2.367-1.213 4.338 2.208 2.13 10.722 2.07-10.006 6.311-4.734-.395-5.093 3.037 2.447 1.637-2.128 5.739 3.421.828-3.8 4.358-6.524 2.386-3.183 6.153-3.54-2.13-2.328 7.159-8.693 8.36-1.452-1.518-6.525 9.367-3.341 2.88-11.856 1.124-8.375 9.958-8.534 4.851-2.426 6.488-3.94 3.668-4.893 1.933-1.332-1.736-1.91 3.787-9.886 5.66-14.561 3.569 2.944-6.823-2.427-4.497 2.447-3.076-5.889-7.119 2.348-1.716 2.427-9.11-5.172-19.937.139-12.227-9.568-6.507-.975-6.035 2.307-11.22 4.019-7.435 2.387-13.488-7.241-13.233-9.31-9.19-3.123-12.364 1.79-1.36v.039z" fill="#0cf" fill-rule="evenodd" />
  <path class="fil3" d="M417.496 312.007l2.287-25.577 12.612 6.942 6.902-2.722 1.612 5.049-3.044 1.34 3.322 4.832-3.441 4.713-.935 6.468-2.427 3.846-2.467-2.544-3.898 2.603-5.252.532-5.271-5.482z" fill="#0cf" fill-rule="evenodd" />
  <path class="fil3" d="M428.04 316.968l3.88-2.603 2.466 2.544 2.427-3.845.935-6.468 3.44-4.714-3.321-4.831 3.043-1.341-1.61-5.048 7.857 4.673 7.559.316 11.278 7.158 10.702-1.124-1.69 8.953 4.794 6.271-5.332 1.006-4.396 3.727.418 2.544 6.465 2.721 4.118 8.855-6.465 11.082-.279 7.415 4.715.848 1.73 4.28 3.521-.017 3.66 4.24-1.114 8.657 10.424 10.767-2.964 4.16 2.108 2.17 4.735 1.262 11.756-2.485 1.99 5.01 6.564-2.624 12.69-.867 10.842-5.542 2.686-4.26 6.763-1.064.895-6.153 6.147-2.603 3.62.888 5.291-7.04 4.973 1.479 6.446 5.225-2.05 4.753 3.203-.119 5.63 4.142 6.644-1.341 10.483 12.877-11.08 10.61-3.998.236-11.06 9.13v-10.59l-9.986-2.662-10.861 6.074-12.314.276-2.745 8.243-9.946 5.561-1.452-1.242-9.031 1.834-10.722-2.07-2.208-2.13 1.214-4.34-10.106-2.366-31.33-30.862-5.271-1.873-9.41 3.688-3.56-1.341 5.988-3.668-1.612-4.004 1.89-7.888-2.845-4.456 2.984-6.035-9.647-2.76-4.158-7.869-9.17-2.938.517-10.314L428 316.951l.04.022z" fill="#0cf" fill-rule="evenodd" />
  <path class="fil3" d="M476.7 301.691l3.401.335 7.48 8.835 12.69 2.347 10.762-1.874.876-2.031 4.973 4.713 9.17-7.375.14-5.127 5.768-3.156 1.571-4.003 7.42 3.451-5.35 5.62-4.974 11.458 6.584 15.42-4.197-.256-5.51 2.939-5.152 5.324-8.892-3.826L500.371 349l-7.121 2.78-8.972 7.593-3.5.022-1.731-4.279-4.715-.848.26-7.415 6.484-11.082-4.118-8.855-6.485-2.721-.417-2.544 4.396-3.727 5.33-1.006-4.773-6.27 1.69-8.954z" fill="#0cf" fill-rule="evenodd" />
  <path class="fil3" d="M484.306 359.355l8.971-7.592 7.122-2.78 13.089-14.514 8.892 3.825 5.152-5.324 5.51-2.938 4.197.256-6.584-15.42 4.973-11.458 5.331-5.62 5.868 15.4 6.704-.59 3.978-2.505 1.214 1.656.895 4.339-2.706 8.578.856 3.293 3.68 1.302 8.136 8.243 3.998 15.224-2.844-1.598-.498 4.22-2.924 2.308-6.246.71-7.46-2.09-1.372-3.373-6.187 1.736-6.107-1.282 1.711 4.516-1.89 4.26-7.3.098-2.884 4.397-8.614 2.84-3.282 9.367 1.69 4.733-5.828 1.834-.676 2.721-11.736 2.485-4.735-1.262-2.108-2.17 2.964-4.16-10.424-10.767 1.094-8.658-3.66-4.24h.04z" fill="#0cf" fill-rule="evenodd" />
  <path class="fil3" d="M512.87 388.127l.676-2.72 5.828-1.835-1.69-4.733 3.282-9.367 8.613-2.84 2.904-4.397 7.28-.098 1.89-4.26-1.71-4.516 6.107 1.282 6.186-1.735 1.373 3.372 7.46 2.09 6.245-.71 2.924-2.307.518-4.22 2.824 1.597 1.373-3.333 2.745.651-2.327 15.303-4.954-1.48-5.31 7.041-3.621-.887-6.147 2.603-.895 6.152-6.763 1.065-2.686 4.26-10.841 5.541-12.691.868-6.565 2.623-1.989-5.01h-.04z" fill="#0cf" fill-rule="evenodd" />
  <path class="fil3" d="M533.546 294.364l-1.452-4.811 8.871-3.432 1.214-5.699 2.427.138-3.979-7.02 3.203-1.243-2.745-3.628 2.128-4.674-6.365-.966-3.342-5.64 4.754-3.727-4.953-9.051 5.212-2.584 5.39-7 2.586-.888-.835-1.952 5.908.927-1.412 7.493 8.454 7.553 1.392 6.133-2.685 3.017 1.89 3.786-2.348 4.3 2.646 1.498.636 3.49-1.67 2.92-5.113 4.535-6.345 14.672-6.048 5.304-7.4-3.45h-.022z" fill="#5fd35f" fill-rule="evenodd" />
  <path class="fil3" d="M551.603 233.074l8.374-3.944 3.024 1.617 10.722-2.346 3.361 4.654-1.65 2.03-2.666 14.18-5.73 5.817-1.073 8.52-5.829 6.783-.616-3.49-2.666-1.5 2.347-4.318-1.89-3.767 2.686-3.036-1.372-6.114-8.475-7.572 1.433-7.474.022-.04z" fill="#5fd35f" fill-rule="evenodd" />
  <path class="fil3" d="M540.985 297.788l6.028-5.305 6.365-14.672 5.093-4.535 1.67-2.919 5.829-6.764 1.074-8.539 5.73-5.817 2.665-14.159 1.65-2.031-3.361-4.674-.676-2.347-2.964-.256 3.183-6.744 19.016 4.338 2.467-1.499 6.147-2.899 11-1.794 2.447 5.285-1.472 4.752-1.691 1.677.756 4.14-1.452.573 5.072 6.882-1.173 5.147-4.755 7.651-5.29.138.854 6.173-3.72 6.567 11.379 17.018 1.372 7.77 3.044 3.845-3.242 9.249 3.282 4.299 3.182 10.037-2.247 6.725.039 4.102-6.644 11.2-17.525 9.802 1.253 8.795-1.89 3.865-8.076 9.308-5.59 3.116 2.07-4.733-6.466-5.246 2.348-15.303-2.765-.63-1.353 3.332-4.018-15.224-8.136-8.263-3.66-1.301-.876-3.274 2.706-8.578-.895-4.358-1.194-1.637-3.978 2.485-6.704.592-5.868-15.402-.04.04z" fill="#5fd35f" fill-rule="evenodd" />
  <path class="fil3" d="M538.807 210.266l-6.266-17.374 4.317 1.203 3.481-2.425-1.353-5.128 7.778-1.637 8.335 2.268 1.651-2.307-1.571-4.516 1.81 1.874 2.864-4.714 19.196 2.367 2.407-.533 2.725-4.91 1.77 4.772 4.337.355 8.952 6.212 8.832-.848 1.75-2.307-.576 7.967-4.337 8.795-3.998 1.42 2.228 13.764-8.693 2.268-1.75 3.648 2.048 1.4-2.466 1.5-19.017-4.34-3.183 6.745 2.964.257.676 2.346-10.722 2.367-3.023-1.637-8.375 3.944.418-5.285-10.324-18.773-2.885 1.262z" fill="#5fd35f" fill-rule="evenodd" />
  <path class="fil3" d="M579.825 375.298l5.59-3.115 8.056-9.328 1.89-3.865-1.233-8.776 17.525-9.8 6.624-11.221-.04-4.082 2.268-6.725-3.182-10.057-3.303-4.299 3.263-9.249-3.044-3.825-1.372-7.79-11.399-17.018 3.72-6.547-.835-6.173 5.271-.157 4.774-7.632 1.154-5.167-5.053-6.882 1.453-.572-.776-4.121 1.69-1.696 1.473-4.733-2.447-5.305-11 1.814-6.147 2.88-2.03-1.4 1.732-3.649 8.712-2.268-2.247-13.764 3.998-1.42 4.356-8.795.557-7.967 5.43-1.44 4.277-5.778 3.94-1.617-.856-3.115 1.89-2.525 1.432 1.282 2.128-1.854-1.233-1.262 3.063-6.37 4.198-1.005 3.76-4.595 3.64 1.815 4.953-5.857 16.749-10.965 10.622-.532 3.103-7.316 3.302-1.618.995 11.576 1.631 3.136-1.91 2.642-2.048 9.525.994 2.997 7.838 6.764-1.353 3.057 3.163 4.97-7.778 5.837 9.747 8.38 7.181-2.228 6.664 1.302 8.236 9.584 2.924 1.025 12.074-2.366 12.055 7.809 3.302 5.837 1.313 9.742-7.002 1.873-2.367 9.23-2.944 2.78-1.97-1.775-1.67.927-4.078 1.065-1.79-2.682-4.655.907-1.77-1.44-5.213 2.347 4.158 7.573-6.923 7.099 1.393 7.198-1.651 3.569 11.676 8.539 2.447 5.127-1.85 11.142 1.611 9.347-3.52 10.136 3.44 7.395-1.67 5.206-4.496 4.694.677 4.299-2.407 3.964 11.239-1.539 1.014 5.838-7.38 19.108-6.266 5.975-.955-2.267-6.465 4.023-1.75-2.525-2.546 2.86-2.05-3.451-3.281 7.08-9.867 2.346-4.993 4.22-4.456-2.86-1.67 2.525-2.308-1.321-4.516 1.459-1.63 6.803-4.437-.552-5.828 5.325-7.698-1.42-1.035-5.7-4.714 1.144-6.226-4.456-5.869-1.085-6.584 6.725-1.034 6.843-5.928 6.152-11.776 1.676L595.182 378l-6.624 1.341-5.649-4.141-3.203.119.12-.023z" fill="#5fd35f" fill-rule="evenodd" />
  <path class="fil3" d="M713.29 357.325l6.247-5.975 7.4-19.109-1.015-5.837-11.239 1.538 2.387-3.963-.676-4.3 4.495-4.693 1.671-5.206-3.421-7.395 3.52-10.136-1.63-9.347 1.85-11.142-2.427-5.127-11.697-8.54 1.651-3.568-1.372-7.198 6.922-7.1-4.157-7.572 5.211-2.347 1.751 1.44 4.655-.927 1.79 2.702 4.078-1.065 3.56 7.927-3.162 3.313.915 2.307 2.924 2.564 9.668 2.702 8.354-1.755 4.914-7.967 7.36 2.86 9.488-2.15 5.152-4.654 4.138-.04 5.152 7.652-3.322 3.49 4.734 2.485 7.181-1.557 2.149 3.391-1.87 1.716 1.79 6.961-.1 11.024 1.393 2.701 9.509-.296 5.63 1.893 5.33 5.739-.238 9.643-17.605 15.48 16.351-.986 2.765 3.649-4.833 3.194 2.347 4.18-3.998 1.204.377 3.352 2.308 1.144 7.957-2.268 1.611 7.316.577 4.871-3.56 3.372 2.645 3.826-9.429 7.533-9.011.848-3.282-.887-.14-3.806-8.832 1.321-5.032-1.262-9.21 6.744-3.482-.394-14.223 6.921-2.665-.73-2.666 3.176-7.897.177-6.723-2.386-14.84 9.959-15.357 2.327-.756-1.893-2.426-.67 6.683-3.156-4.257-7.277-.039.04z" fill="#5fd35f" fill-rule="evenodd" />
  <path class="fil3" d="M782.579 237.554l4.177-1.4 5.61-7.928 7.917-4.339 6.723 2.19 6.943-3.846 12.572 3.845 2.128 2.603 7.161-.217 11.677-7.138 2.009 1.42 25.8-14.002 4.595 6.981 10.464 4.457 2.247 5.206 10.006-5.009 5.112.138-.198 10.274 10.264-.789 7.678 2.92-.298 6.724 2.804 1.676 6.008 9.11-.597 8.776 3.262 3.47-2.347 2.11 2.347 4.714 6.386 1.499-5.053 5.285-.457 1.735 3.56.513.338 1.991-5.112 8.125 4.277.296 6.405-3.234 3.262 5.167 3.74.552 4.317-3.57 2.665 4.516 4.337 12.976-4.158 3.47-3.78 5.503-2.864-1.558-4.436 3.727-8.871 4.91-4.596 6.863-12.472 1.992-9.747 7.316-5.53-2.564-3.88 2.623-1.093-1.026-1.89-3.51-10.145.927-9.827-1.794-4.177-3.156 3.56-4.121-.059-6.666-9.17-4.279-4.973 1.48-2.487 4.969-7.698-1.736-7.977.809-1.81 2.11-7.579-1.144-4.396 5.6-8.056 2.564-1.612-7.296-7.936 2.248-2.308-1.124-.398-3.372 4.018-1.184-2.367-4.2 4.854-3.175-2.785-3.648-16.332.986 17.605-15.48.238-9.643-5.33-5.74-5.65-1.892-9.489.276-1.412-2.682.12-11.024-1.79-6.96 1.85-1.716-2.13-3.412-7.18 1.558-4.735-2.485 3.322-3.47-5.152-7.672h-.022z" fill="#5fd35f" fill-rule="evenodd" />
  <path class="fil3" d="M680.19 129.826l20.966-14.75 6.326-5.7 7.181-.927 2.845 11.734 10.284 8.085 4.834 1.499 3.043 7.257 6.227 4.042 10.324 14.041 9.15 4.339 1.95-1.953 3.998 1.578 5.888-4.319 4.814 2.505 5.172 18.3 1.73.986 4.297-.71 2.03 5.462 5.151-.453 10.424 14.632-3.263 10.866-6.882 4.733 6.902 7.513.736 3.53-4.018 1.755-7.917 4.338-5.61 7.928-4.177 1.4-4.138.039-5.152 4.654-9.488 2.17-7.36-2.86-4.914 7.947-8.354 1.775-9.668-2.722-2.924-2.544-.915-2.307 3.163-3.333-3.561-7.927 1.67-.927 1.97 1.795 2.944-2.8 2.367-9.23 7.002-1.873-1.312-9.742-3.302-5.837-12.035-7.81-12.095 2.387-2.924-1.045-8.235-9.584-6.664-1.282-7.181 2.229-9.747-8.401 7.778-5.818-3.163-4.989 1.352-3.056-7.837-6.764-.995-2.998 2.05-9.525 1.909-2.642-1.631-3.116-.995-11.595-.023.022z" fill="#5fd35f" fill-rule="evenodd" />
  <path class="fil3" d="M554.089 87.22l9.508-12.739 10.642-4.042 9.31-10.215 5.291-9.584-1.87-7.908 13.845-5.857 2.308-4.437 8.951 4.003 3.68-2.603 7.161 2.189 3.402-2.406 5.55.276 18.5 13.666 5.649.335-.199 5.305 5.75 4.26 13.924 6.389 6.325.276-1.392 12.266 6.564.848-3.879 5.324.697 4.575 4.197.257 4.674 8.026 8.475 1.597 5.231-2.228 1.83.927-1.412 6.626 7.798 3.766.1 2.367-7.182.927-6.326 5.699-20.966 14.75-3.302 1.617-3.083 7.316-10.623.553-16.75 10.944-4.972 5.877-3.64-1.834-3.74 4.614-4.217.986-3.064 6.37 1.254 1.262-2.129 1.854-1.432-1.262-5.172.276-11.339-11.201-7.598-13.588-4.417-.808 1.293-10.176-1.153-4.713 2.088-2.03-3.74-1.874-1.83-5.64-5.41-1.124-10.841 3.411-6.445 3.412-1.492-2.741-9.17-1.243-2.447-4.16 1.094-13.509-3.84-15.243-.022.022z" fill="#5fd35f" fill-rule="evenodd" />
  <path class="fil3" d="M555.125 187.162l-4.436-4.398-5.57-19.74 3.978-2.011-1.571-4.89 1.552-5.424-1.174-5.916 11.816-9.09 10.244-11.596 6.426-3.412 10.86-3.411 5.391 1.124 1.85 5.64 3.72 1.873-2.088 2.031 1.153 4.713-1.293 10.176 4.416.808 7.62 13.588 11.338 11.2 5.152-.275-1.89 2.524.855 3.096-3.938 1.617-4.277 5.778-5.43 1.46-1.751 2.306-8.813.848-8.97-6.231-4.337-.335-1.77-4.773-2.706 4.91-2.427.533-19.176-2.386-2.884 4.713-1.81-1.853 1.571 4.496-1.631 2.327v-.017z" fill="#5fd35f" fill-rule="evenodd" />
  <path class="fil3" d="M446.236 142.139l10.165-4.99 6.266.139 2.546-2.288 2.486-.355 8.017-.257 1.094 4.536 2.924 1.972 12.91-1.972 9.867.237-1.691-5.542 2.785-5.226 2.088.947 4.715-4.28-.398-3.115 6.465-8.361 3.381-1.046 3.501-7.868 4.456-1.163 4.237-7.81 5.43.197 4.457-5.62 12.074-3.037 3.84 15.244-1.095 13.528 2.447 4.141 9.17 1.243 1.492 2.74-10.224 11.616-11.836 9.071 1.173 5.916-1.551 5.443 1.571 4.89-3.958 1.992 5.55 19.74 4.456 4.417-8.355-2.268-7.758 1.637 1.333 5.108-3.481 2.425-4.317-1.183 6.286 17.354-.875 4.437-7.58.907-.835 2.05-3.083-1.261.816-5.147-1.572.315-1.87-3.845-4.376 2.031-6.962-.533-1.433 2.86-1.452-1.026-3.938 2.11-10.643 1.539-11.796-1.677.557-1.262-14.004-.966-15.018 5.62-13.666 12.838-5.928 2.11-4.456-5.719 1.432-5.541-.855-9.82-5.948-10.709 3.282-10.708-.994-3.037.895-12.01 5.291-3.095.597-6.508 1.611-3.707 4.158-3.175 1.034-7.12 4.854-4.042.258-4.062h-.022z" fill="#5fd35f" fill-rule="evenodd" />
  <path class="fil3" d="M364.324 176.284l8.732-14.89-2.387-3.332 1.313-2.82-2.029-1.203-.198-4.082-4.337-.946-.816-7.77 7.281-22.6 6.445-3.273 1.293-4.042 5.152-4.2-1.273-3.196-4.893-3.056-.14-3.55-8.772-5.206 8.931-3.51.12-2.978 2.089-2.406 3.083-.966 1.014-4.535 7.46-.494 2.089-1.735-1.154-6.35 2.745-2.13 3.123-8.696 3.56-.631 3.303 2.268-1.671 2.76 9.13 1.834 5.192-2.642 4.954.315 6.146 2.761 6.764.67 3.182 1.677 19.395-1.597 1.512 6.803 5.789-.887 8.474 6.113 6.405 6.665 5.749 8.973 5.868-3.076-.378-3.866 8.613-.867 7.38 5.068-.875 3.53 6.883 8.144 5.291 10.215-3.381 1.045-6.465 8.362.398 3.135-4.715 4.28-2.089-.967-2.784 5.226 1.69 5.541-9.886-.236-12.89 1.972-2.944-1.972-1.094-4.516-7.997.256-2.486.335-2.547 2.288-6.286-.138-10.145 5.009-8.135-3.076-11.876 10.767-6.724-1.302-12.452 10.511.696 2.268-8.275 7.75-.08 6.606-3.54 1.341-2.626-1.203-.16 1.933-6.902 4.22-13.447 1.794-8.414-7.493h.022z" fill="red" fill-rule="evenodd" />
  <path class="fil3" d="M269.778 165.138l-.478-43.068 2.586 3.628 8.952 1.578 6.544 4.318 3.084-1.32 6.206 4.298 3.143-.946 4.834-8.796 8.534-4.89 5.629 6.724.023 10.058 16.072.788 7.46 4.497 4.496-.316 10.622 3.47 4.913-1.813 2.208-2.17.816 7.79 4.356.946.2 4.082 2.028 1.184-1.313 2.82 2.387 3.332-8.732 14.909-5.51-2.584-1.532.257-3.382 6.941-8.573-2.504-.935-2.426-3.939-1.44-.955-5.462-7.38-6.428-8.474-4.93-9.787 1.222-2.367-2.366-3.6.512-2.368-1.143-2.546 1.774-1.372 5.345-7.32.907.238 2.327-2.487 1.4-3.998-3.116-4.038 1.597-1.572-4.614-3.7 2.938-8.95.71-.023-.022z" fill="red" fill-rule="evenodd" />
  <path class="fil3" d="M261.013 96.128l2.089-4.594 10.483 1.479 3.6-4.358 2.805-.454 2.288-9.959 5.928 2.86.696 2.504 4.297-1.144 3.282 1.933 1.77 5.936 7.241 5.206.517 2.74 7.26 4.122 1.254 2.998 19.574.355 3.879-4.792 5.35-.414 4.636-3.412 4.535.513 3.163-4.457-2.526-2.07 16.172-7.435 6.346-.434 8.454-5.798.815.276-1.014 4.536-3.084.946-2.088 2.426-.12 2.978-8.931 3.51 8.772 5.206.14 3.55 4.893 3.037 1.273 3.194-5.152 4.2-1.293 4.063-6.445 3.254-7.28 22.599-2.229 2.17-4.913 1.813-10.622-3.47-4.476.315-7.48-4.496-16.053-.789-.039-10.057-5.63-6.744-8.533 4.91-4.814 8.795-3.143.947-6.226-4.3-3.083 1.322-6.525-4.319-8.952-1.577-2.586-3.629-.775-5.797 1.074-4.654-6.386-1.972-4.475-4.773-.836-4.437 3.143-4.397-.022.039z" fill="red" fill-rule="evenodd" />
  <path class="fil3" d="M293.175 82.428l.775-2.84 4.297-2.05 4.834 1.537 13.865-5.166 8.334 1.203 6.087-2.643 3.8 2.958 7.698-1.065 7.062 4.3 6.326-.927 4.296 2.248 3.044-2.958 8.931 2.11 8.415-3.156 3.123 1.46-8.434 5.797-6.346.435-16.172 7.434 2.526 2.07-3.183 4.457-4.515-.512-4.655 3.411-5.331.414-3.88 4.792-19.593-.355-1.233-2.997-7.26-4.122-.518-2.74-7.24-5.207-1.791-5.936-3.262-1.932v-.022zM199.596 116.466l3.7-5.542 5.39-2.346 2.17 1.636 10.085-1.952 6.882-4.397 3.243-5.483 5.112-.315 2.765-4.97 2.825-2.287 3.938-.022 5.53 3.608 5.75-1.064 4.037 2.76-3.143 4.398.836 4.417 4.475 4.792 6.386 1.972-1.074 4.654.756 5.778.477 43.089-1.611 5.699 3.68 4.476-2.626 3.234-5.152 4.851-5.71-5.6-9.448-3.964-.995-8.953-7.002.197-8.434-3.017-2.168 2.82h-8.733l-7.082-4.536-.179-3.667-4.515 1.952-3.8-.138-1.511-2.19-1.651-4.712 9.647-2.485 7.639-5.246.517-4.594-5.948-3.116-3.978 2.189-5.988-.335-3.063 5.206-4.834-8.578 2.387-3.412.418-14.81z" fill="red" fill-rule="evenodd" />
  <path class="fil3" d="M138.94 186.288l24.189-3.47 5.55 2.8 6.863-4.516-1.134-5.108 6.843-2.011 1.352-2.544 6.525.177 5.908-6.192-6.684-2.544 11.896-5.186v-1.893l4.237.513 1.511 2.188 3.8.138 4.495-1.952.2 3.668 7.08 4.536h8.733l2.169-2.82 8.434 3.017 7.002-.197.995 8.953 9.448 3.964 5.71 5.6 5.152-4.851 8.772 12.62.915 6.272 5.291 9.288-5.689 9.9-3.48.907-3.363-2.998-8.414 1.696-9.29-1.873-3.023 1.715-9.767-3.53-5.172.927-4.337-4.812-6.266 10.866-10.463 1.124-2.03-1.893-20.409-2.011-9.488 7.355-1.93 2.564-10.165 1.637-3.401 2.248-2.944-.572-5.73-2.15-6.007-10.885-3.182-.947 3.978-12.975-1.571-2.9 1.93-2.149-.598-4.713-7.917-3.411-3.381.433-3.183-3.983.04-.023z" fill="#ff0" fill-rule="evenodd" />
  <path class="fil3" d="M134.418 135.495l6.505-3.806 8.415-.73 2.625-3.49 7.858-.828 2.765-3.865 2.725 1.42 6.067-.552 10.682-5.206 2.586 2.07.975-1.065 6.266.178 7.698-3.214-.398 14.83-2.387 3.41 4.834 8.579 3.043-5.206 6.008.315 3.978-2.169 5.948 3.096-.517 4.615-7.659 5.225-9.627 2.485 1.65 4.733-4.236-.533v1.913l-11.896 5.187 6.684 2.524-5.908 6.192-6.545-.158-1.332 2.544-6.843 2.012 1.134 5.107-6.863 4.516-5.57-2.8-24.189 3.47-1.054-.551.815-4.654-3.54-4.2 3.222-13.568-4.018-7.869 8.613-6.724-6.266-3.767-2.188-9.446-.06-.022zM273.05 276.13l1.93-8.203-4.376-12.936 2.248-16.644 5.967-7.454-2.148-4.713 7.022-9.94 1.472-9.07 3.6-4.714 4.038 2.584 4.496-.434 4.217-3.846-2.347 7.297 3.62 3.372-1.69 4.2 3.242 4.832 6.803 2.603-4.854 7.335 7.3 7.534 2.806.453-2.586 2.998-2.387-.513-2.805 3.51.398 12.463-3.263 7.198-19.494 12.167-6.326.829-1.73 14.474-5.252-4.358 2.706-4.812-2.626-6.211h.022z" fill="#ff0" fill-rule="evenodd" />
  <path class="fil3" d="M236.831 265.92l.696-2.86 2.188-.315-.08-4.063 2.786.927 3.5-2.346-.198-3.432-.318-13.41 5.987-8.025 10.523.022 6.962 6.626 3.959-.67-2.268 16.623 4.396 12.956-1.93 8.204-3.48 1.065-6.843-4.477-5.292.552-.855 2.939-4.476-.237-8.971-3.352-6.246-6.744-.04.022z" fill="#ff0" fill-rule="evenodd" />
  <path class="fil3" d="M183.004 224.168l9.489-7.375 20.409 2.031 2.029 1.874 10.463-1.105 6.246-10.866 4.357 4.812 5.172-.927 9.767 3.51 3.023-1.695 9.29 1.873 8.414-1.696 3.362 2.978 3.481-.888 5.69-9.9.915.356-1.453 9.09-7.022 9.94 2.149 4.693-5.968 7.474-3.958.67-6.963-6.625h-10.523l-5.987 8.006.318 13.41-13.347 4.18-3.402-.67-3.123-7.553 1.333-4.575-2.606-4.24-4.456-3.155-4.774.907-1.532-3.747-2.924-1.045-6.903-.118-9.826-4.753-5.55-.473-5.57-4.378-.023-.022z" fill="#ff0" fill-rule="evenodd" />
  <path class="fil3" d="M203.976 233.776l6.903.118 2.924 1.065 1.532 3.747 4.774-.907 4.436 3.155 2.625 4.22-1.352 4.575 3.123 7.573 3.401.67 13.368-4.18.179 3.43-3.481 2.347-2.805-.926.1 4.062-2.189.315-.696 2.86-5.47 2.347-9.787-.414-6.226-3.333 1.571-6.35-5.61-5.206 1.055-3.688-2.367-6.547-1.91-3.096h-3.302l-.836-5.857.04.022z" fill="#ff0" fill-rule="evenodd" />
  <path class="fil3" d="M137.792 286l2.566-2.958.676-6.527 4.118-1.775-3.024-6.843 6.127-.868 8.514-8.243-3.939-3.115.437-7.474 12.373-5.029-3.103-4.042 2.01-9.072 2.943.572 3.402-2.268 10.145-1.617 1.95-2.563 5.569 4.378 5.55.453 9.827 4.753.835 5.857h3.302l1.91 3.096 2.367 6.547-1.054 3.687 5.61 5.206-1.572 6.35-4.376 1.302-6.744-1.341-16.47 16.584-3.521 7.652h-10.066l-7.897 3.865-3.362 1.302-1.69-3.294-10.504-7.138-2.506 3.037-10.364-.494-.04.023z" fill="#ff0" fill-rule="evenodd" />
  <path class="fil3" d="M124.199 304.068l1.253-4.457 2.447-2.169 1.85.808 4.714-4.2 3.66-6.488-.278-1.558 10.364.493 2.506-3.037 10.503 7.14 1.691 3.292 3.362-1.301 1.75 11.122-2.267 10.708 3.182 5.502-1.472 6.882-3.859 2.741-.716-5.364-12.97-2.149-3.68-7.533-7.2-.927-6.147-6.665-8.713-2.8.023-.04z" fill="#8080ff" fill-rule="evenodd" />
  <path class="fil3" d="M110.375 320.233l5.351-4.418 6.983-2.701 1.491-9.032 8.713 2.8 6.147 6.665 7.2.927 3.68 7.533 12.97 2.15.717 5.364 3.859-2.741 1.472-6.883-3.183-5.502 2.268-10.708-1.75-11.122 7.896-3.865h10.066l3.52-7.651 16.472-16.585 6.743 1.341 4.376-1.301 6.227 3.332 9.786.395 5.47-2.347 6.267 6.764 8.951 3.333 4.496.256.855-2.958 5.272-.552 6.843 4.477 3.48-1.065 2.627 6.192-2.706 4.831 5.232 4.339-.995 2.248-17.226 10.077-5.45-4.674h-3.621l-2.527-4.456-7.519 6.093-8.573-2.09-3.044 3.55-10.622 3.293-7.54 17.432 1.731 1.952 6.823.75 1.711 3.234 7.659-1.085-4.914 6.41-4.137 20.824-7.062 8.4-4.416 1.164-.458 2.86-2.725-.81-2.864 1.914-1.293 2.74 4.038 6.962-2.05 2.564.677 3.076-5.51 11.142-1.353 5.876-4.475-.079-1.154 3.451h-4.357l-4.495-4.93-.657-5.285-1.89-.236-8.613 5.857 1.572 4.338-5.232 5.423-2.228 1.814-3.242-.69-7.24-6.823-2.885.533-4.655-4.339-2.884-8.302-3.283-1.321 1.572-7.198-3.243-.138-1.133-3.254 2.088-5.58-1.492-4.34-7.718-.768-9.23-15.973 1.592-4.95-2.03-6.547.18-4.398-6.664-.789-2.467-1.893-.477-2.899-3.82-3.49 2.01-7.928.022.017zM277.19 293.722l.995-2.228 2.665 1.065 4.476-2.524 13.606-1.243 9.13-4.26 8.097 3.018-2.805 4.28-24.845 23.86-16.948-6.507 5.37-5.66.26-9.8z" fill="#8080ff" fill-rule="evenodd" />
  <path class="fil3" d="M228.984 327.838l-7.639 1.085-1.73-3.234-6.824-.75-1.73-1.972 7.559-17.413 10.602-3.293 3.064-3.55 8.573 2.09 7.5-6.112 2.546 4.476h3.62l5.43 4.674 17.227-10.077-.258 9.8-5.351 5.64 16.928 6.528-5.73 22.895-11.736 1.795-1.253-5.384-3.103-1.637-11.259 2.978-1.87 2.386-13.327-.946-11.26-9.999.023.023z" fill="#8080ff" fill-rule="evenodd" />
  <path class="fil3" d="M198.262 395.095l5.53-11.122-.676-3.076 2.03-2.564-4.02-6.98 1.274-2.742 2.864-1.893 2.726.809.457-2.86 4.436-1.183 7.042-8.4 4.138-20.825 4.913-6.409 11.259 10.018 13.308.927 1.89-2.367 11.258-2.997 3.104 1.637 1.253 5.403 11.716-1.814 2.586 5.265-1.094 2.406 4.516 2.346-1.015 13.824-3.004 3.708 2.606 6.704 15.934 9.091-4.476 6.745-7.26-.79-7.162 3.807-4.555-2.741-8.713.374-6.385 7.04-5.351-.098-6.385 10.49-3.74-.59-.895 2.583-3.82 3.037-5.43-3.649-5.232-5.107-6.882 2.918-3.6.414-7.083-7.65.418 5.58-2.626-2.051-1.61-3.333-14.264-3.944.023.06z" fill="#8080ff" fill-rule="evenodd" />
  <path class="fil3" d="M216.675 491.875l10.563-10.649 2.188-10.747 3.958-3.53 7.181-.316 2.606-4.121 2.964-.375 6.266-12.404.975-7.277-14.243-.907-6.803-6.626-7.3-2.662 4.853-2.899 2.785-3.194-1.014-5.423 3.998-4.457-1.77-5.956 5.231-2.11 5.43 3.629 3.82-3.017.895-2.603 3.74.591 6.405-10.471 5.351.079 6.366-7.02 8.732-.375 4.536 2.741 7.161-3.826 7.28.79-8.613 6.428.04 8.164-6.147 6.922-1.83 4.042 1.85 1.519 16.132 4.733 6.704 5.265v5.127l-2.168 4.792-7.917-1.084 1.372 31.473-14.62.197-4.019-3.924 1.154 4.299-4.098 8.795.458 7.553-19.196 10.372-1.214-1.32-8.175 1.932-4.953-3.333-4.218 1.44-1.352-3.826-3.58-.335-14.84 7.967-2.925-3.984v-.079z" fill="#8080ff" fill-rule="evenodd" />
  <path class="fil3" d="M143.224 437.262l3.999-6.192 4.257-.315-.915-11.734 17.982-4.89.418-4.556-1.353-.118 5.232-5.443-1.552-4.319 8.594-5.857 1.89.217.676 5.305 4.475 4.91h4.357l1.154-3.43 4.475.058 1.353-5.877 14.243 3.944 1.631 3.333 2.626 2.07-.438-5.58 7.102 7.651 3.6-.414 6.883-2.938 5.232 5.127-5.252 2.11 1.77 5.956-3.998 4.476 1.035 5.404-2.805 3.194-4.834 2.9 7.28 2.681 6.804 6.606 14.262.907-.974 7.297-6.286 12.384-2.964.375-2.606 4.121-7.161.316-3.979 3.55-2.188 10.727-10.562 10.649-4.178 2.011-2.586-2.86-2.089 1.776-10.085-4.792-2.427 1.242-4.774-6.784-2.466-10.432-11.14-9.544-6.067 4.713-4.914-1.341 1.87-2.465-3.123-2.623-2.526-7.276-6.067-4.22-12.91-12.01h.022z" fill="#8080ff" fill-rule="evenodd" />
  <path class="fil3" d="M37.313 531.983l3.462-5.265 3.322-.237-3.183-9.978-3.998-1.243.219-2.366-2.805 1.045-1.651-3.49 1.83-2.919 5.311-1.302 1.213-2.662-4.416-4.397.816-4.497 3.143 1.144 3.024-1.203-1.313-4.062.775-2.978 4.635 1.874 2.467 3.668 1.512-3.156 2.924 1.736 7.917-.434 2.268-7.986 10.682-10.196-2.089-2.406 3.939-3.391-2.387-3.018 3.819-4.299-.975-1.498 4.416-2.11.477-1.361-3.54-1.4 1.63-5.739 7.222-8.657.795-5.009 6.704 4.871 23.85-3.155.617-3.116 9.25 4.082 7.897-5.995 6.107 6.37 12.91 12.01 6.087 4.22 2.527 7.276 3.103 2.623-1.85 2.465 4.913 1.34 6.067-4.692 11.14 9.524 2.467 10.452 4.774 6.764 2.427-1.242 10.065 4.792 2.089-1.775 2.606 2.86 4.177-2.012 2.924 4.003 14.84-7.987 3.58.355 1.353 3.806 4.217-1.44 4.953 3.353 8.176-1.932 1.213 1.32 19.196-10.392 2.626 10.511-14.382 5.877 4.237 4.811-1.99 1.894-5.25-1.223-20.251 14.593-3.7-.947-5.49 3.274-.319 3.411 4.894 7.474 2.506-1.972 1.154 1.322.418 5.442-2.964 3.964 3.481 1.893-2.586 2.86-8.295.315-.08 2.564-4.655 3.47 2.268 2.643-5.311 1.834-1.492 2.8-6.763-2.82-10.424 2.13-4.933-7.1-6.127 6.232-13.347.69 1.93 8.362-8.037 3.076-3.74-3.254-4.794.04-3.242-3.964-4.755.473-1.77 4.496-5.55-.414-6.823-4.22.437-6.212-1.89-.296-1.59-5.344-5.272-4.989-3.084.118v-3.352l-4.694-4.93-2.924.118-6.406 8.283-14.183-4.674-.457-4.417-4.158-2.406-.537-5.325-4.137-1.853-10.305 1.617 1.353 5.68-3.82 1.597-6.544 2.997-19.355-7.257-11.318.119-3.124-2.367-4.296 1.38.022.023z" fill="#8080ff" fill-rule="evenodd" />

  <text class="legend" x="379.009" y="716.133"     transform="translate(0 -452.362)">
    <tspan x="379.009" y="716.133">São Paulo</tspan>
  </text>
  <text class="legend" x="487.197" y="178.918"    >
    <tspan x="487.197" y="178.918">Guarulhos</tspan>
  </text>
  <text class="legend" x="440.174" y="855.079"     transform="translate(0 -452.362)">
    <tspan x="440.174" y="855.079">São Bernardo</tspan><tspan x="440.174" y="871.329">do Campo</tspan>
  </text>
  <text class="legend" x="456.791" y="770.757"    transform="translate(0 -452.362)">
    <tspan x="456.791" y="770.757">Santo</tspan><tspan x="456.791" y="787.007">André</tspan>
  </text>
  <text class="legend" x="292.389" y="697.395"     transform="translate(0 -452.362)">
    <tspan x="292.389" y="697.395">Osasco</tspan>
  </text>
  <text class="legend" x="499.925" y="327.764"    >
    <tspan x="499.925" y="327.764">Mauá</tspan>
  </text>
  <text class="legend" x="401.283" y="797.804"     transform="translate(0 -452.362)">
    <tspan x="401.283" y="797.804">Diadema</tspan>
  </text>
  <text class="legend" x="664.327" y="726.032"     transform="translate(0 -452.362)">
    <tspan x="664.327" y="726.032">Mogi das</tspan><tspan x="664.327" y="742.282">Cruzes</tspan>
  </text>
  <text class="legend" x="568.16" y="658.15"     transform="translate(0 -452.362)">
    <tspan x="568.16" y="658.15">Itaquaquecetuba</tspan>
  </text>
  <text class="legend" x="419.845" y="747.246"    transform="translate(0 -452.362)">
    <tspan x="419.845" y="747.246">São Caetano</tspan><tspan x="419.845" y="763.496">do Sul</tspan>
  </text>
  <text class="legend" x="562.5" y="241.438"   >
    <tspan x="562.5" y="241.438">Poá</tspan>
  </text>
  <text class="legend" x="543.875" y="713.675"    transform="translate(0 -452.362)">
    <tspan x="543.875" y="713.675">Ferraz de</tspan><tspan x="543.875" y="729.925">Vasconcelos</tspan>
  </text>
  <text class="legend" x="531.568" y="804.521"    transform="translate(0 -452.362)">
    <tspan x="531.568" y="804.521">Ribeirão Pires</tspan>
  </text>
  <text class="legend" x="536.871" y="824.143"    transform="translate(0 -452.362)">
    <tspan x="536.871" y="824.143">Rio Grande</tspan><tspan x="536.871" y="840.393">da Serra</tspan>
  </text>
  <text class="legend" x="581.595" y="752.549"    transform="translate(0 -452.362)">
    <tspan x="581.595" y="752.549">Suzano</tspan>
  </text>
  <text class="legend" x="576.292" y="159.119"   >
    <tspan x="576.292" y="159.119">Arujá</tspan>
  </text>
  <text class="legend" x="619.072" y="96.894"   >
    <tspan x="619.072" y="96.894">Santa Isabel</tspan>
  </text>
  <text class="legend" x="733.27" y="628.452"    transform="translate(0 -452.362)">
    <tspan x="733.27" y="628.452">Guararema</tspan>
  </text>
  <text class="legend" x="765.797" y="750.428"    transform="translate(0 -452.362)">
    <tspan x="765.797" y="750.428">Biritiba Mirim</tspan>
  </text>
  <text class="legend" x="868.327" y="274.024"   >
    <tspan x="868.327" y="274.024">Salesópolis</tspan>
  </text>
  <text class="legend" x="434.164" y="567.64"    transform="translate(0 -452.362)">
    <tspan x="434.164" y="567.64">Mairiporã</tspan>
  </text>
  <text class="legend" x="315.723" y="604.056"    transform="translate(0 -452.362)">
    <tspan x="315.723" y="604.056">Caieiras</tspan>
  </text>
  <text class="legend" x="323.501" y="570.115"    transform="translate(0 -452.362)">
    <tspan x="323.501" y="570.115">Franco da Rocha</tspan>
  </text>
  <text class="legend" x="326.683" y="537.588"    transform="translate(0 -452.362)">
    <tspan x="326.683" y="537.588">Francisco</tspan><tspan x="326.683" y="553.838">Morato</tspan>
  </text>
  <text class="legend" x="241.477" y="588.147"    transform="translate(0 -452.362)">
    <tspan x="241.477" y="588.147">Cajamar</tspan>
  </text>
  <text class="legend" x="165.109" y="602.996"    transform="translate(0 -452.362)">
    <tspan x="165.109" y="602.996">Pirapora do</tspan><tspan x="165.109" y="619.246">Bom Jesus</tspan>
  </text>
  <text class="legend" x="216.375" y="650.726"    transform="translate(0 -452.362)">
    <tspan x="216.375" y="650.726">Santana de Parnaíba</tspan>
  </text>
  <text class="legend" x="237.941" y="682.899"    transform="translate(0 -452.362)">
    <tspan x="237.941" y="682.899">Barueri</tspan>
  </text>
  <text class="legend" x="269.761" y="720.376"    transform="translate(0 -452.362)">
    <tspan x="269.761" y="720.376">Carapicuíba</tspan>
  </text>
  <text class="legend" x="218.85" y="248.921"   >
    <tspan x="218.85" y="248.921">Jandira</tspan>
  </text>
  <text class="legend" x="179.078" y="714.438"    transform="translate(0 -452.362)">
    <tspan x="179.078" y="714.438">Itapevi</tspan>
  </text>
  <text class="legend" x="170.059" y="343.32"   >
    <tspan x="170.059" y="343.32">Cotia</tspan>
  </text>
  <text class="legend" x="246.712" y="768.939"    transform="translate(0 -452.362)">
    <tspan x="246.712" y="768.939">Embu das</tspan><tspan x="246.712" y="785.189">Artes</tspan>
  </text>
  <text class="legend" x="268.701" y="886.192"    transform="translate(0 -452.362)">
    <tspan x="268.701" y="886.192">Embu-Guaçu</tspan>
  </text>
  <text class="legend" x="192.333" y="892.91"    transform="translate(0 -452.362)">
    <tspan x="192.333" y="892.91">São Lourenço</tspan><tspan x="192.333" y="909.16">da Serra</tspan>
  </text>
  <text class="legend" x="141.421" y="500.651"   >
    <tspan x="141.421" y="500.651">Juquitiba</tspan>
  </text>
  <text class="legend" x="294.164" y="742.763"    transform="translate(0 -452.362)">
    <tspan x="294.164" y="742.763">Taboão</tspan><tspan x="294.164" y="759.013">da Serra</tspan>
  </text>
  <text class="legend" x="250.25" y="820.362"    transform="translate(0 -452.362)">
    <tspan x="250.25" y="820.362">Itapecerica</tspan><tspan x="250.25" y="836.612">da Serra</tspan>
  </text>
  <text class="legend" x="140" y="748.362"    transform="translate(0 -452.362)">
    <tspan x="140" y="748.362">Vargem Grande</tspan><tspan x="140" y="764.612">Paulista</tspan>
  </text>
</svg>
